<svg width="34" height="35" viewBox="0 0 34 35" fill="none" xmlns="http://www.w3.org/2000/svg">
<g clip-path="url(#clip0_401_14739)">
<rect x="0.575684" width="32.8788" height="35" fill="#111111"/>
<path d="M13.087 10.355L10.8548 8.97399L16.9264 5.19531L23.0158 8.97399L20.7836 10.355L16.9264 7.97657L13.087 10.355ZM24.6051 12.7335V15.5148L26.8374 14.1337V11.3524L24.6051 9.95223L22.3729 11.3333L24.6051 12.7335ZM14.6942 11.3524L16.9264 12.7335L19.1586 11.3524L16.9264 9.95223L14.6942 11.3524ZM23.0158 13.7309L20.7836 12.3498L16.9264 14.7283L13.087 12.3498L10.8548 13.7309V16.5122L14.6942 18.8906V23.6475L16.9264 25.0285L19.1586 23.6475V18.8906L23.0158 16.5122V13.7309ZM24.6051 22.2665L20.7658 24.645V27.4262L26.8552 23.6475V16.1094L24.6051 17.5096V22.2665ZM20.7658 22.6693L22.998 21.2882V18.4878L20.7658 19.8688V22.6693ZM14.6942 25.6424V28.4236L16.9264 29.8047L19.1586 28.4236V25.6424L16.9264 27.0234L14.6942 25.6424ZM6.99756 14.1337L9.22976 15.5148V12.7335L11.462 11.3524L9.24762 9.95223L7.01542 11.3333V14.1337H6.99756ZM9.24762 17.5096L7.01542 16.1285V23.6667L13.1048 27.4454V24.6641L9.24762 22.2665V17.5096ZM13.087 19.8881L10.8548 18.507V21.2882L13.087 22.6693V19.8881Z" fill="#F1BA0D"/>
</g>
<defs>
<clipPath id="clip0_401_14739">
<rect x="0.575684" width="32.8788" height="35" rx="16.4394" fill="white"/>
</clipPath>
</defs>
</svg>
