<svg width="35" height="35" viewBox="0 0 35 35" fill="none" xmlns="http://www.w3.org/2000/svg">
<g clip-path="url(#clip0_401_14723)">
<rect width="35" height="35" rx="17.5" fill="#FEFEFE"/>
<path d="M25.4692 20.8633C25.6118 20.8644 25.7489 20.9179 25.8546 21.0136C25.9603 21.1093 26.027 21.2406 26.0421 21.3824V21.5554C25.8133 23.6771 24.8125 25.6407 23.2301 27.0725C21.6477 28.5043 19.5941 29.3044 17.4602 29.3206C15.3262 29.3367 13.2608 28.5678 11.6569 27.1601C10.053 25.7524 9.02258 23.8042 8.76172 21.6862V21.4901V21.3862C8.7751 21.2434 8.84121 21.1107 8.94715 21.0141C9.05308 20.9174 9.19123 20.8636 9.33466 20.8633H25.4692Z" fill="#AFD8F7"/>
<path d="M9.06531 5.46875C13.1566 5.46875 16.4404 8.6449 16.4404 12.567V19.4884C16.4404 19.6414 16.3797 19.7881 16.2715 19.8963C16.1633 20.0044 16.0166 20.0652 15.8637 20.0652H9.32679C9.17382 20.0652 9.02711 20.0044 8.91894 19.8963C8.81077 19.7881 8.75001 19.6414 8.75001 19.4884V5.79175C8.74954 5.71277 8.77837 5.63643 8.83093 5.57748C8.88349 5.51853 8.95604 5.48116 9.03455 5.47259L9.06531 5.46875Z" fill="#182A71"/>
<path d="M25.6921 17.7438L25.7344 17.8822L25.7036 17.7899C25.8869 18.2594 26.0022 18.7528 26.0458 19.2549C26.0543 19.3557 26.0427 19.4571 26.0119 19.5534C25.9811 19.6497 25.9316 19.739 25.8662 19.8161C25.8009 19.8933 25.7209 19.9568 25.631 20.003C25.5411 20.0492 25.4429 20.0773 25.3422 20.0855H21.9814C19.7089 20.0855 17.8555 18.4782 17.7979 16.2403V12.322C17.7979 12.22 17.8384 12.1222 17.9105 12.0501C17.9826 11.978 18.0804 11.9375 18.1824 11.9375C19.8802 12.0123 21.5133 12.6105 22.8578 13.65C24.2023 14.6895 25.1923 16.1194 25.6921 17.7438Z" fill="#3485C4"/>
</g>
<defs>
<clipPath id="clip0_401_14723">
<rect width="35" height="35" fill="white"/>
</clipPath>
</defs>
</svg>
