<svg width="34" height="35" viewBox="0 0 34 35" fill="none" xmlns="http://www.w3.org/2000/svg">
<g clip-path="url(#clip0_401_14787)">
<rect x="0.575684" width="32.8788" height="35" rx="16.4394" fill="#0052FF"/>
<path fill-rule="evenodd" clip-rule="evenodd" d="M5.45605 17.5C5.45605 24.2957 10.6312 29.8047 17.015 29.8047C23.3989 29.8047 28.574 24.2957 28.574 17.5C28.574 10.7043 23.3989 5.19531 17.015 5.19531C10.6312 5.19531 5.45605 10.7043 5.45605 17.5ZM14.061 13.5352C13.6355 13.5352 13.2905 13.9024 13.2905 14.3555V20.6445C13.2905 21.0976 13.6355 21.4648 14.061 21.4648H19.969C20.3946 21.4648 20.7396 21.0976 20.7396 20.6445V14.3555C20.7396 13.9024 20.3946 13.5352 19.969 13.5352H14.061Z" fill="#FEFEFE"/>
</g>
<defs>
<clipPath id="clip0_401_14787">
<rect width="32.8788" height="35" fill="white" transform="translate(0.575684)"/>
</clipPath>
</defs>
</svg>
