<svg width="34" height="35" viewBox="0 0 34 35" fill="none" xmlns="http://www.w3.org/2000/svg">
<g clip-path="url(#clip0_401_14732)">
<rect x="0.575684" width="32.8788" height="35" rx="16.4394" fill="#111111"/>
<path fill-rule="evenodd" clip-rule="evenodd" d="M7.2551 21.6352C7.25484 21.6562 7.25471 21.6773 7.25471 21.6984C7.25471 24.2798 9.22052 26.3724 11.6455 26.3724C14.0704 26.3724 16.0362 24.2798 16.0362 21.6984C16.0362 21.6773 16.0361 21.6562 16.0359 21.6352H13.9587C13.9592 21.6562 13.9595 21.6772 13.9595 21.6984C13.9595 23.0588 12.9234 24.1617 11.6454 24.1617C10.3674 24.1617 9.33139 23.0588 9.33139 21.6984C9.33139 21.6772 9.33164 21.6562 9.33214 21.6352H7.2551ZM11.6455 8.75C14.4964 8.75 16.8076 11.2103 16.8076 14.2452C16.8076 17.2801 14.4964 19.7403 11.6455 19.7403C8.79455 19.7403 6.4834 17.2801 6.4834 14.2452C6.4834 11.2103 8.79455 8.75 11.6455 8.75ZM11.6455 10.9607C13.3495 10.9607 14.7309 12.4312 14.7309 14.2451C14.7309 16.0591 13.3495 17.5296 11.6455 17.5296C9.94148 17.5296 8.5601 16.0591 8.5601 14.2451C8.5601 12.4312 9.94148 10.9607 11.6455 10.9607ZM12.0015 13.1729C12.4163 13.329 12.7135 13.7501 12.7135 14.2452C12.7135 14.8731 12.2353 15.3821 11.6455 15.3821C11.0557 15.3821 10.5775 14.8731 10.5775 14.2452C10.5775 13.7502 10.8747 13.329 11.2895 13.1729V12.4134H12.0015V13.1729ZM18.5906 15.6658C18.2483 15.0003 18.0536 14.2363 18.0536 13.424C18.0536 10.8426 20.0194 8.75 22.4444 8.75C24.8693 8.75 26.8351 10.8426 26.8351 13.424C26.8351 14.2364 26.6405 15.0003 26.2981 15.6658C25.756 15.211 25.1413 14.8499 24.4754 14.6056C24.6558 14.2548 24.7584 13.8522 24.7584 13.424C24.7584 12.0636 23.7224 10.9607 22.4444 10.9607C21.1664 10.9607 20.1303 12.0636 20.1303 13.424C20.1303 13.8522 20.2329 14.2548 20.4134 14.6055C19.7475 14.8498 19.1327 15.2109 18.5906 15.6658ZM22.4444 26.3724C25.2953 26.3724 27.6065 23.9121 27.6065 20.8772C27.6065 17.8423 25.2953 15.3821 22.4444 15.3821C19.5934 15.3821 17.2823 17.8423 17.2823 20.8772C17.2823 23.9121 19.5934 26.3724 22.4444 26.3724ZM22.4444 24.1617C24.1484 24.1617 25.5298 22.6912 25.5298 20.8772C25.5298 19.0633 24.1484 17.5928 22.4444 17.5928C20.7404 17.5928 19.359 19.0633 19.359 20.8772C19.359 22.6912 20.7404 24.1617 22.4444 24.1617ZM22.8003 21.9495C23.2152 21.7934 23.5124 21.3723 23.5124 20.8772C23.5124 20.2493 23.0342 19.7403 22.4444 19.7403C21.8545 19.7403 21.3764 20.2493 21.3764 20.8772C21.3764 21.3722 21.6736 21.7934 22.0884 21.9494V22.709H22.8003V21.9495Z" fill="#DEAE30"/>
</g>
<defs>
<clipPath id="clip0_401_14732">
<rect width="32.8788" height="35" fill="white" transform="translate(0.575684)"/>
</clipPath>
</defs>
</svg>
