<svg width="35" height="35" viewBox="0 0 35 35" fill="none" xmlns="http://www.w3.org/2000/svg">
<g clip-path="url(#clip0_1_17289)">
<rect width="35" height="35" fill="#FEFEFE"/>
<path d="M27.348 7.38281L18.8125 13.7223L20.3909 9.98208L27.348 7.38281Z" fill="#E2761B" stroke="#E2761B" stroke-linecap="round" stroke-linejoin="round"/>
<path d="M7.64355 7.38281L16.1105 13.7823L14.6092 9.98208L7.64355 7.38281Z" fill="#E4761B" stroke="#E4761B" stroke-linecap="round" stroke-linejoin="round"/>
<path d="M24.2772 22.0781L22.0039 25.561L26.8679 26.8992L28.2662 22.1553L24.2772 22.0781Z" fill="#E4761B" stroke="#E4761B" stroke-linecap="round" stroke-linejoin="round"/>
<path d="M6.74268 22.1553L8.13238 26.8992L12.9964 25.561L10.7231 22.0781L6.74268 22.1553Z" fill="#E4761B" stroke="#E4761B" stroke-linecap="round" stroke-linejoin="round"/>
<path d="M12.7221 16.1948L11.3667 18.245L16.1964 18.4595L16.0248 13.2695L12.7221 16.1948Z" fill="#E4761B" stroke="#E4761B" stroke-linecap="round" stroke-linejoin="round"/>
<path d="M22.2696 16.1923L18.924 13.207L18.8125 18.457L23.6336 18.2426L22.2696 16.1923Z" fill="#E4761B" stroke="#E4761B" stroke-linecap="round" stroke-linejoin="round"/>
<path d="M12.9966 25.5588L15.8961 24.1434L13.3912 22.1875L12.9966 25.5588Z" fill="#E4761B" stroke="#E4761B" stroke-linecap="round" stroke-linejoin="round"/>
<path d="M19.0957 24.1434L22.0038 25.5588L21.6006 22.1875L19.0957 24.1434Z" fill="#E4761B" stroke="#E4761B" stroke-linecap="round" stroke-linejoin="round"/>
<path d="M22.0033 25.56L19.0952 24.1445L19.3268 26.0404L19.3011 26.8382L22.0033 25.56Z" fill="#D7C1B3" stroke="#D7C1B3" stroke-linecap="round" stroke-linejoin="round"/>
<path d="M12.9961 25.56L15.6983 26.8382L15.6811 26.0404L15.8956 24.1445L12.9961 25.56Z" fill="#D7C1B3" stroke="#D7C1B3" stroke-linecap="round" stroke-linejoin="round"/>
<path d="M15.7414 20.938L13.3223 20.2259L15.0294 19.4453L15.7414 20.938Z" fill="#233447" stroke="#233447" stroke-linecap="round" stroke-linejoin="round"/>
<path d="M19.25 20.938L19.962 19.4453L21.6777 20.2259L19.25 20.938Z" fill="#233447" stroke="#233447" stroke-linecap="round" stroke-linejoin="round"/>
<path d="M12.9964 25.561L13.4082 22.0781L10.7231 22.1553L12.9964 25.561Z" fill="#CD6116" stroke="#CD6116" stroke-linecap="round" stroke-linejoin="round"/>
<path d="M21.5918 22.0781L22.0036 25.561L24.2768 22.1553L21.5918 22.0781Z" fill="#CD6116" stroke="#CD6116" stroke-linecap="round" stroke-linejoin="round"/>
<path d="M23.6336 18.2422L18.8125 18.4566L19.2586 20.9358L19.9706 19.4432L21.6863 20.2238L23.6336 18.2422Z" fill="#CD6116" stroke="#CD6116" stroke-linecap="round" stroke-linejoin="round"/>
<path d="M13.3226 20.2238L15.0383 19.4432L15.7417 20.9358L16.1964 18.4566L11.3667 18.2422L13.3226 20.2238Z" fill="#CD6116" stroke="#CD6116" stroke-linecap="round" stroke-linejoin="round"/>
<path d="M11.3662 18.2422L13.3907 22.1883L13.3221 20.2238L11.3662 18.2422Z" fill="#E4751F" stroke="#E4751F" stroke-linecap="round" stroke-linejoin="round"/>
<path d="M21.6859 20.2238L21.6001 22.1883L23.6332 18.2422L21.6859 20.2238Z" fill="#E4751F" stroke="#E4751F" stroke-linecap="round" stroke-linejoin="round"/>
<path d="M16.1959 18.457L15.7412 20.9362L16.3074 23.8614L16.4361 20.0097L16.1959 18.457Z" fill="#E4751F" stroke="#E4751F" stroke-linecap="round" stroke-linejoin="round"/>
<path d="M18.8122 18.457L18.5806 20.0011L18.6835 23.8614L19.2583 20.9362L18.8122 18.457Z" fill="#E4751F" stroke="#E4751F" stroke-linecap="round" stroke-linejoin="round"/>
<path d="M19.2583 20.9386L18.6836 23.8638L19.0954 24.1469L21.6003 22.191L21.686 20.2266L19.2583 20.9386Z" fill="#F6851B" stroke="#F6851B" stroke-linecap="round" stroke-linejoin="round"/>
<path d="M13.3223 20.2266L13.3909 22.191L15.8958 24.1469L16.3076 23.8638L15.7414 20.9386L13.3223 20.2266Z" fill="#F6851B" stroke="#F6851B" stroke-linecap="round" stroke-linejoin="round"/>
<path d="M19.3012 26.8368L19.327 26.039L19.1125 25.8503H15.8784L15.6811 26.039L15.6983 26.8368L12.9961 25.5586L13.9397 26.3307L15.8527 27.6603H19.1383L21.0598 26.3307L22.0034 25.5586L19.3012 26.8368Z" fill="#C0AD9E" stroke="#C0AD9E" stroke-linecap="round" stroke-linejoin="round"/>
<path d="M19.0954 24.1464L18.6836 23.8633H16.3074L15.8956 24.1464L15.6812 26.0422L15.8785 25.8535H19.1125L19.327 26.0422L19.0954 24.1464Z" fill="#161616" stroke="#161616" stroke-linecap="round" stroke-linejoin="round"/>
<path d="M27.7084 14.134L28.4376 10.634L27.3482 7.38281L19.0957 13.5078L22.2697 16.1929L26.7562 17.5054L27.7513 16.3473L27.3224 16.0384L28.0087 15.4122L27.4768 15.0005L28.1631 14.4772L27.7084 14.134Z" fill="#763D16" stroke="#763D16" stroke-linecap="round" stroke-linejoin="round"/>
<path d="M6.5625 10.634L7.29167 14.134L6.82843 14.4772L7.51471 15.0005L6.99142 15.4122L7.6777 16.0384L7.24877 16.3473L8.23529 17.5054L12.7218 16.1929L15.8958 13.5078L7.64338 7.38281L6.5625 10.634Z" fill="#763D16" stroke="#763D16" stroke-linecap="round" stroke-linejoin="round"/>
<path d="M26.7562 17.5039L22.2697 16.1914L23.6337 18.2417L21.6006 22.1877L24.2771 22.1534H28.266L26.7562 17.5039Z" fill="#F6851B" stroke="#F6851B" stroke-linecap="round" stroke-linejoin="round"/>
<path d="M12.7218 16.1914L8.23532 17.5039L6.74268 22.1534H10.7231L13.391 22.1877L11.3665 18.2417L12.7218 16.1914Z" fill="#F6851B" stroke="#F6851B" stroke-linecap="round" stroke-linejoin="round"/>
<path d="M18.8123 18.456L19.0954 13.5062L20.3993 9.98047H14.6089L15.8957 13.5062L16.1959 18.456L16.2988 20.0172L16.3074 23.8604H18.6836L18.7008 20.0172L18.8123 18.456Z" fill="#F6851B" stroke="#F6851B" stroke-linecap="round" stroke-linejoin="round"/>
</g>
<defs>
<clipPath id="clip0_1_17289">
<rect width="35" height="35" rx="17.5" fill="white"/>
</clipPath>
</defs>
</svg>
