<svg width="35" height="35" viewBox="0 0 35 35" fill="none" xmlns="http://www.w3.org/2000/svg">
<g clip-path="url(#clip0_401_14707)">
<rect width="35" height="35" rx="17.5" fill="url(#paint0_radial_401_14707)"/>
<path d="M10.9888 13.5164C14.5093 10.0779 20.2241 10.0779 23.7446 13.5164L24.1685 13.9333C24.3462 14.1042 24.3462 14.3845 24.1685 14.5554L22.7192 15.9705C22.6304 16.0593 22.4868 16.0593 22.398 15.9705L21.8169 15.4031C19.356 13.0037 15.3774 13.0037 12.9165 15.4031L12.2944 16.0115C12.2056 16.1003 12.062 16.1003 11.9731 16.0115L10.5239 14.5964C10.3462 14.4255 10.3462 14.1453 10.5239 13.9744L10.9888 13.5164ZM26.7456 16.4421L28.0376 17.7C28.2153 17.8709 28.2153 18.1511 28.0376 18.322L22.2202 24.0027C22.0425 24.1736 21.7554 24.1736 21.5845 24.0027L17.4556 19.9695C17.4145 19.9285 17.3394 19.9285 17.2983 19.9695L13.1694 24.0027C12.9917 24.1736 12.7046 24.1736 12.5337 24.0027L6.6958 18.322C6.51807 18.1511 6.51807 17.8709 6.6958 17.7L7.98779 16.4421C8.16553 16.2712 8.45264 16.2712 8.62354 16.4421L12.7524 20.4753C12.7935 20.5164 12.8687 20.5164 12.9097 20.4753L17.0386 16.4421C17.2163 16.2712 17.5034 16.2712 17.6743 16.4421L21.8032 20.4753C21.8442 20.5164 21.9194 20.5164 21.9605 20.4753L26.0894 16.4421C26.2808 16.2712 26.5679 16.2712 26.7456 16.4421Z" fill="#FEFEFE"/>
</g>
<defs>
<radialGradient id="paint0_radial_401_14707" cx="0" cy="0" r="1" gradientUnits="userSpaceOnUse" gradientTransform="translate(0.00010848 17.5005) scale(35)">
<stop stop-color="#5D9DF6"/>
<stop offset="1" stop-color="#006FFF"/>
</radialGradient>
<clipPath id="clip0_401_14707">
<rect width="35" height="35" fill="white"/>
</clipPath>
</defs>
</svg>
