<svg width="327" height="34" viewBox="0 0 327 34" fill="none" xmlns="http://www.w3.org/2000/svg">
<path d="M29.1769 4.94148L19.2169 33.0215H10.6569L0.696914 4.94148H7.97691L14.9369 26.1415L21.9369 4.94148H29.1769ZM35.4757 8.38148C34.2757 8.38148 33.289 8.03482 32.5157 7.34148C31.769 6.62148 31.3957 5.74148 31.3957 4.70148C31.3957 3.63482 31.769 2.75482 32.5157 2.06148C33.289 1.34148 34.2757 0.981482 35.4757 0.981482C36.649 0.981482 37.609 1.34148 38.3557 2.06148C39.129 2.75482 39.5157 3.63482 39.5157 4.70148C39.5157 5.74148 39.129 6.62148 38.3557 7.34148C37.609 8.03482 36.649 8.38148 35.4757 8.38148ZM38.8757 10.7015V33.0215H32.0357V10.7015H38.8757ZM50.6725 14.4215C51.4725 13.1948 52.4725 12.2348 53.6725 11.5415C54.8725 10.8215 56.2059 10.4615 57.6725 10.4615V17.7015H55.7925C54.0859 17.7015 52.8059 18.0748 51.9525 18.8215C51.0992 19.5415 50.6725 20.8215 50.6725 22.6615V33.0215H43.8325V10.7015H50.6725V14.4215ZM73.3819 27.2215V33.0215H69.9019C67.4219 33.0215 65.4886 32.4215 64.1019 31.2215C62.7152 29.9948 62.0219 28.0082 62.0219 25.2615V16.3815H59.3019V10.7015H62.0219V5.26148H68.8619V10.7015H73.3419V16.3815H68.8619V25.3415C68.8619 26.0082 69.0219 26.4882 69.3419 26.7815C69.6619 27.0748 70.1952 27.2215 70.9419 27.2215H73.3819ZM99.2319 10.7015V33.0215H92.3919V29.9815C91.6986 30.9682 90.7519 31.7682 89.5519 32.3815C88.3786 32.9682 87.0719 33.2615 85.6319 33.2615C83.9252 33.2615 82.4186 32.8882 81.1119 32.1415C79.8052 31.3682 78.7919 30.2615 78.0719 28.8215C77.3519 27.3815 76.9919 25.6882 76.9919 23.7415V10.7015H83.7919V22.8215C83.7919 24.3148 84.1786 25.4748 84.9519 26.3015C85.7252 27.1282 86.7652 27.5415 88.0719 27.5415C89.4052 27.5415 90.4586 27.1282 91.2319 26.3015C92.0052 25.4748 92.3919 24.3148 92.3919 22.8215V10.7015H99.2319ZM102.785 21.8215C102.785 19.5282 103.212 17.5148 104.065 15.7815C104.945 14.0482 106.132 12.7148 107.625 11.7815C109.118 10.8481 110.785 10.3815 112.625 10.3815C114.198 10.3815 115.572 10.7015 116.745 11.3415C117.945 11.9815 118.865 12.8215 119.505 13.8615V10.7015H126.345V33.0215H119.505V29.8615C118.838 30.9015 117.905 31.7415 116.705 32.3815C115.532 33.0215 114.158 33.3415 112.585 33.3415C110.772 33.3415 109.118 32.8748 107.625 31.9415C106.132 30.9815 104.945 29.6348 104.065 27.9015C103.212 26.1415 102.785 24.1148 102.785 21.8215ZM119.505 21.8615C119.505 20.1548 119.025 18.8082 118.065 17.8215C117.132 16.8348 115.985 16.3415 114.625 16.3415C113.265 16.3415 112.105 16.8348 111.145 17.8215C110.212 18.7815 109.745 20.1148 109.745 21.8215C109.745 23.5282 110.212 24.8882 111.145 25.9015C112.105 26.8882 113.265 27.3815 114.625 27.3815C115.985 27.3815 117.132 26.8882 118.065 25.9015C119.025 24.9148 119.505 23.5682 119.505 21.8615ZM138.133 3.42148V33.0215H131.293V3.42148H138.133ZM183.367 4.94148V33.0215H176.527V16.1815L170.247 33.0215H164.727L158.407 16.1415V33.0215H151.567V4.94148H159.647L167.527 24.3815L175.327 4.94148H183.367ZM186.926 21.8215C186.926 19.5282 187.352 17.5148 188.206 15.7815C189.086 14.0482 190.272 12.7148 191.766 11.7815C193.259 10.8481 194.926 10.3815 196.766 10.3815C198.339 10.3815 199.712 10.7015 200.886 11.3415C202.086 11.9815 203.006 12.8215 203.646 13.8615V10.7015H210.486V33.0215H203.646V29.8615C202.979 30.9015 202.046 31.7415 200.846 32.3815C199.672 33.0215 198.299 33.3415 196.726 33.3415C194.912 33.3415 193.259 32.8748 191.766 31.9415C190.272 30.9815 189.086 29.6348 188.206 27.9015C187.352 26.1415 186.926 24.1148 186.926 21.8215ZM203.646 21.8615C203.646 20.1548 203.166 18.8082 202.206 17.8215C201.272 16.8348 200.126 16.3415 198.766 16.3415C197.406 16.3415 196.246 16.8348 195.286 17.8215C194.352 18.7815 193.886 20.1148 193.886 21.8215C193.886 23.5282 194.352 24.8882 195.286 25.9015C196.246 26.8882 197.406 27.3815 198.766 27.3815C200.126 27.3815 201.272 26.8882 202.206 25.9015C203.166 24.9148 203.646 23.5682 203.646 21.8615ZM214.074 21.8615C214.074 19.5415 214.541 17.5148 215.474 15.7815C216.434 14.0482 217.754 12.7148 219.434 11.7815C221.141 10.8481 223.087 10.3815 225.274 10.3815C228.074 10.3815 230.407 11.1148 232.274 12.5815C234.167 14.0481 235.407 16.1148 235.994 18.7815H228.714C228.101 17.0748 226.914 16.2215 225.154 16.2215C223.901 16.2215 222.901 16.7148 222.154 17.7015C221.407 18.6615 221.034 20.0482 221.034 21.8615C221.034 23.6748 221.407 25.0748 222.154 26.0615C222.901 27.0215 223.901 27.5015 225.154 27.5015C226.914 27.5015 228.101 26.6482 228.714 24.9415H235.994C235.407 27.5548 234.167 29.6082 232.274 31.1015C230.381 32.5948 228.047 33.3415 225.274 33.3415C223.087 33.3415 221.141 32.8748 219.434 31.9415C217.754 31.0082 216.434 29.6748 215.474 27.9415C214.541 26.2082 214.074 24.1815 214.074 21.8615ZM253.373 10.4615C255.933 10.4615 257.986 11.3148 259.533 13.0215C261.08 14.7015 261.853 17.0215 261.853 19.9815V33.0215H255.053V20.9015C255.053 19.4082 254.666 18.2482 253.893 17.4215C253.12 16.5948 252.08 16.1815 250.773 16.1815C249.466 16.1815 248.426 16.5948 247.653 17.4215C246.88 18.2482 246.493 19.4082 246.493 20.9015V33.0215H239.653V3.42148H246.493V13.7015C247.186 12.7148 248.133 11.9281 249.333 11.3415C250.533 10.7548 251.88 10.4615 253.373 10.4615ZM270.046 8.38148C268.846 8.38148 267.859 8.03482 267.086 7.34148C266.339 6.62148 265.966 5.74148 265.966 4.70148C265.966 3.63482 266.339 2.75482 267.086 2.06148C267.859 1.34148 268.846 0.981482 270.046 0.981482C271.219 0.981482 272.179 1.34148 272.926 2.06148C273.699 2.75482 274.086 3.63482 274.086 4.70148C274.086 5.74148 273.699 6.62148 272.926 7.34148C272.179 8.03482 271.219 8.38148 270.046 8.38148ZM273.446 10.7015V33.0215H266.606V10.7015H273.446ZM292.003 10.4615C294.616 10.4615 296.696 11.3148 298.243 13.0215C299.816 14.7015 300.603 17.0215 300.603 19.9815V33.0215H293.803V20.9015C293.803 19.4082 293.416 18.2482 292.643 17.4215C291.87 16.5948 290.83 16.1815 289.523 16.1815C288.216 16.1815 287.176 16.5948 286.403 17.4215C285.63 18.2482 285.243 19.4082 285.243 20.9015V33.0215H278.403V10.7015H285.243V13.6615C285.936 12.6748 286.87 11.9015 288.043 11.3415C289.216 10.7548 290.536 10.4615 292.003 10.4615ZM326.396 21.5015C326.396 22.1415 326.356 22.8082 326.276 23.5015H310.796C310.903 24.8882 311.343 25.9548 312.116 26.7015C312.916 27.4215 313.889 27.7815 315.036 27.7815C316.743 27.7815 317.929 27.0615 318.596 25.6215H325.876C325.503 27.0882 324.823 28.4082 323.836 29.5815C322.876 30.7548 321.663 31.6748 320.196 32.3415C318.729 33.0082 317.089 33.3415 315.276 33.3415C313.089 33.3415 311.143 32.8748 309.436 31.9415C307.729 31.0082 306.396 29.6748 305.436 27.9415C304.476 26.2082 303.996 24.1815 303.996 21.8615C303.996 19.5415 304.463 17.5148 305.396 15.7815C306.356 14.0482 307.689 12.7148 309.396 11.7815C311.103 10.8481 313.063 10.3815 315.276 10.3815C317.436 10.3815 319.356 10.8348 321.036 11.7415C322.716 12.6482 324.023 13.9415 324.956 15.6215C325.916 17.3015 326.396 19.2615 326.396 21.5015ZM319.396 19.7015C319.396 18.5282 318.996 17.5948 318.196 16.9015C317.396 16.2082 316.396 15.8615 315.196 15.8615C314.049 15.8615 313.076 16.1948 312.276 16.8615C311.503 17.5282 311.023 18.4748 310.836 19.7015H319.396Z" fill="url(#paint0_linear_701_12927)"/>
<defs>
<linearGradient id="paint0_linear_701_12927" x1="11.9759" y1="18.3832" x2="327.931" y2="18.3832" gradientUnits="userSpaceOnUse">
<stop stop-color="#427AFF"/>
<stop offset="1" stop-color="#7F00FF"/>
</linearGradient>
</defs>
</svg>
